<?xml version="1.0" ?><svg viewBox="0 0 24 24" xmlns="http://www.w3.org/2000/svg"><defs><style>.cls-1,.cls-2{fill:none;}.cls-2{stroke:#000;stroke-linecap:round;stroke-linejoin:round;}</style></defs><g data-name="Layer 2" id="Layer_2"><g id="Workspace"><rect class="cls-1" height="24" width="24"/><path class="cls-2" d="M7,6V18H7a1,1,0,0,0,1,1h9V7H8A1,1,0,0,1,7,6H7A1,1,0,0,1,8,5h8V7"/><path class="cls-2" d="M11,12a1,1,0,0,1,1-1h0a1,1,0,0,1,1,1h0a1,1,0,0,1-.29.71l-.71.7"/><line class="cls-2" x1="12" x2="12" y1="15" y2="15"/></g></g></svg>